PathFileType	4	(X/Y/Z)	/Users/itak/Documents/Research/Walk-IL/dataset/trc/00488_00167.trc
DataRate	CameraRate	NumFrames	NumMarkers	Units	OrigDataRate	OrigDataStartFrame	OrigNumFrames
100.000000	100.000000	4	53	mm	100.000000	136	546
Frame#	Time	RPSI			LPSI			L3			STRN			T10			C7			CLAV			RBAK			LBAK			LSHO			LUPA			LAEL			LAOL			LWTS			LWPS			LFRA			LIFD			LHPS			LHTS			RSHO			RUPA			RAEL			RAOL			RWTS			RWPS			RFRA			RIFD			RHTS			RHPS			RBHD			LFHD			RFHD			LBHD			LHIP			RHIP			RASI			LASI			LKNE			LTHI			LANK			LTIP			LTOE			LMT1			LMT5			LHEE			RKNE			RTHI			RANK			RTIP			RTOE			RMT1			RMT5			RHEE			
		X1	Y1	Z1	X2	Y2	Z2	X3	Y3	Z3	X4	Y4	Z4	X5	Y5	Z5	X6	Y6	Z6	X7	Y7	Z7	X8	Y8	Z8	X9	Y9	Z9	X10	Y10	Z10	X11	Y11	Z11	X12	Y12	Z12	X13	Y13	Z13	X14	Y14	Z14	X15	Y15	Z15	X16	Y16	Z16	X17	Y17	Z17	X18	Y18	Z18	X19	Y19	Z19	X20	Y20	Z20	X21	Y21	Z21	X22	Y22	Z22	X23	Y23	Z23	X24	Y24	Z24	X25	Y25	Z25	X26	Y26	Z26	X27	Y27	Z27	X28	Y28	Z28	X29	Y29	Z29	X30	Y30	Z30	X31	Y31	Z31	X32	Y32	Z32	X33	Y33	Z33	X34	Y34	Z34	X35	Y35	Z35	X36	Y36	Z36	X37	Y37	Z37	X38	Y38	Z38	X39	Y39	Z39	X40	Y40	Z40	X41	Y41	Z41	X42	Y42	Z42	X43	Y43	Z43	X44	Y44	Z44	X45	Y45	Z45	X46	Y46	Z46	X47	Y47	Z47	X48	Y48	Z48	X49	Y49	Z49	X50	Y50	Z50	X51	Y51	Z51	X52	Y52	Z52	X53	Y53	Z53	

137	1.36	-1332.855712890625	944.371337890625	-225.6949768066406	-1236.623291015625	937.520263671875	-331.2196655273438	-1284.598388671875	1041.083374023438	-249.2712707519531	-1048.933349609375	1222.547729492188	-89.578857421875	-1290.302368164062	1164.5224609375	-259.0122375488281	-1225.203125	1429.420532226562	-209.5719909667969	-1069.130493164062	1336.16796875	-116.1294250488281	-1336.4638671875	1317.257690429688	-166.357421875	-1197.597900390625	1377.61181640625	-310.0849304199219	-1067.51220703125	1389.6689453125	-317.2584533691406	-1027.013671875	1267.718627929688	-402.3511352539062	-1007.980102539062	1049.84716796875	-419.1542663574219	-1112.219116210938	1044.397216796875	-412.4947509765625	-991.1780395507812	840.4038696289062	-342.1272277832031	-994.320556640625	829.13623046875	-415.5708618164062	-993.5655517578125	960.279052734375	-417.5533752441406	-1008.241088867188	678.6273193359375	-353.1201477050781	-997.2901611328125	750.6497192382812	-413.4655456542969	-984.5197143554688	751.9237060546875	-342.1964416503906	-1258.350341796875	1402.057006835938	-38.09235000610352	-1321.328491210938	1347.898559570312	14.17658042907715	-1386.542602539062	1067.912841796875	62.17870712280273	-1408.29052734375	1053.769897460938	-1.215404272079468	-1300.03564453125	850.37646484375	77.70886993408203	-1387.517456054688	845.9473876953125	91.25012969970703	-1395.435424804688	1009.97265625	72.50788116455078	-1320.017333984375	695.1845092773438	81.85560607910156	-1304.290161132812	752.7041015625	93.31240844726562	-1382.05615234375	756.8409423828125	95.63661193847656	-1166.057006835938	1626.828002929688	-80.21291351318359	-992.2029418945312	1624.72314453125	-193.4608001708984	-1028.580688476562	1632.71240234375	-68.22309112548828	-1131.891967773438	1621.1103515625	-255.0520629882812	-1045.19287109375	846.1451416015625	-311.6848754882812	-1356.19970703125	839.3201904296875	-49.58791732788086	-1231.3583984375	871.3944702148438	-19.68386650085449	-1044.444702148438	886.0447998046875	-190.2672424316406	-952.661865234375	452.1411437988281	-175.8510894775391	-957.436767578125	604.1405029296875	-215.2369842529297	-1018.150451660156	43.32003021240234	-221.6983489990234	-949.86962890625	295.868896484375	-188.531494140625	-883.7470092773438	44.44388961791992	-18.71364593505859	-961.5401000976562	48.75358200073242	-45.13072204589844	-892.3367309570312	49.27830505371094	-133.7140045166016	-1093.197387695312	50.0627326965332	-198.6804046630859	-1394.513305664062	461.9158325195312	-79.61612701416016	-1346.032470703125	705.602783203125	-23.00439453125	-1653.217529296875	135.0409851074219	-264.8984069824219	-1472.271240234375	344.5237121582031	-118.9691543579102	-1483.28662109375	43.67589950561523	-218.7898559570312	-1502.21337890625	65.51799774169922	-267.7684936523438	-1582.305786132812	52.66678619384766	-197.6677093505859	-1662.480224609375	184.9748687744141	-326.4391784667969	
138	1.37	-1324.4248046875	946.0716552734375	-223.0808410644531	-1227.88037109375	939.8240966796875	-328.3974609375	-1275.66357421875	1043.354370117188	-246.6996765136719	-1040.307495117188	1224.98046875	-87.11695861816406	-1281.492553710938	1166.54736328125	-256.4237976074219	-1216.920166015625	1431.512573242188	-207.2540740966797	-1060.64501953125	1338.548706054688	-113.7770080566406	-1327.972045898438	1319.330078125	-163.8197021484375	-1189.2900390625	1379.590576171875	-307.6632995605469	-1059.36181640625	1392.085693359375	-314.9145812988281	-1018.199157714844	1270.29833984375	-399.9100952148438	-997.7862548828125	1052.327758789062	-415.7428283691406	-1102.046875	1046.369873046875	-409.6401977539062	-980.079833984375	843.3597412109375	-337.5133666992188	-982.7245483398438	831.7056884765625	-410.9039306640625	-982.771240234375	962.8651123046875	-413.5912475585938	-996.159912109375	681.4005737304688	-347.7107849121094	-985.1910400390625	753.1891479492188	-408.38671875	-972.874755859375	754.929443359375	-337.0038452148438	-1249.806274414062	1404.448364257812	-35.79739379882812	-1312.603149414062	1350.373291015625	16.68051338195801	-1376.762329101562	1070.255615234375	65.46734619140625	-1399.019165039062	1056.019897460938	2.402952671051025	-1288.400512695312	853.3138427734375	80.63385772705078	-1375.696899414062	848.1895751953125	95.15887451171875	-1385.111938476562	1012.256591796875	76.0244140625	-1307.063232421875	697.947998046875	84.71266174316406	-1291.674194335938	755.59423828125	96.08555603027344	-1369.394287109375	759.0811767578125	99.24523162841797	-1156.985473632812	1629.2412109375	-78.20606994628906	-983.2486572265625	1626.394653320312	-191.5584411621094	-1019.499145507812	1634.5537109375	-66.31132507324219	-1123.00341796875	1623.317016601562	-253.0648193359375	-1037.102416992188	847.497314453125	-309.0448303222656	-1346.943237304688	840.7413940429688	-46.71303176879883	-1222.507080078125	873.7755737304688	-16.77694320678711	-1035.772583007812	887.365966796875	-187.5826873779297	-949.1915283203125	451.6042785644531	-175.1379241943359	-952.2157592773438	603.8150024414062	-213.8608856201172	-1018.107116699219	43.19122314453125	-221.8849182128906	-947.9618530273438	295.2393188476562	-188.3007354736328	-883.9541625976562	44.56553649902344	-18.73830223083496	-961.705810546875	48.83408355712891	-45.20941543579102	-892.3672485351562	49.28680801391602	-133.7611083984375	-1093.166259765625	50.01499557495117	-198.9222412109375	-1381.89990234375	462.7067260742188	-69.18797302246094	-1335.988037109375	707.3890991210938	-18.02491569519043	-1645.965087890625	143.9675140380859	-259.740478515625	-1461.354858398438	346.8356323242188	-109.5309295654297	-1481.794189453125	42.46890640258789	-217.0142364501953	-1498.613525390625	67.34796142578125	-265.0770874023438	-1579.297241210938	55.56162643432617	-195.2286376953125	-1652.842895507812	195.8170471191406	-319.8403015136719	
139	1.38	-1316.253784179688	947.6044921875	-220.4790954589844	-1219.443725585938	942.0020141601562	-325.6247253417969	-1266.875122070312	1045.520751953125	-244.1202850341797	-1031.92236328125	1227.284545898438	-84.64212036132812	-1272.869873046875	1168.491333007812	-253.8761138916016	-1208.79931640625	1433.53515625	-204.9290618896484	-1052.3564453125	1340.819458007812	-111.3950271606445	-1319.65869140625	1321.316162109375	-161.3053894042969	-1181.13330078125	1381.519409179688	-305.2290954589844	-1051.349365234375	1394.450073242188	-312.5114440917969	-1009.470031738281	1272.886474609375	-397.4424743652344	-987.635009765625	1054.828735351562	-412.3917541503906	-1091.8671875	1048.269775390625	-406.7989501953125	-968.78125	846.4168090820312	-332.8768310546875	-970.974609375	834.3410034179688	-406.1922607421875	-971.9351806640625	965.500244140625	-409.6545715332031	-983.6832275390625	684.2653198242188	-342.1766052246094	-972.8342895507812	755.7991333007812	-403.2235107421875	-960.9344482421875	758.0484619140625	-331.7661437988281	-1241.47705078125	1406.751098632812	-33.5035285949707	-1304.111083984375	1352.773193359375	19.16980361938477	-1367.223022460938	1072.53466796875	68.84212493896484	-1389.9892578125	1058.0927734375	6.109333515167236	-1276.778564453125	856.3294067382812	83.69954681396484	-1363.866455078125	850.389404296875	99.23797607421875	-1374.96630859375	1014.478942871094	79.65004730224609	-1293.8388671875	700.79296875	87.77378082275391	-1278.882690429688	758.5870361328125	99.03250122070312	-1356.561889648438	761.29150390625	103.059211730957	-1148.124755859375	1631.569702148438	-76.16408538818359	-974.5244750976562	1627.9970703125	-189.6164245605469	-1010.63623046875	1636.332397460938	-64.35456085205078	-1114.355102539062	1625.41796875	-251.0220336914062	-1029.264892578125	848.7413940429688	-306.5265197753906	-1337.788452148438	841.9956665039062	-43.88634872436523	-1213.764770507812	876.0606689453125	-13.89049816131592	-1027.302856445312	888.6212768554688	-185.0304870605469	-945.896728515625	451.0934448242188	-174.5806884765625	-947.211669921875	603.5084228515625	-212.6387481689453	-1018.06494140625	43.0603141784668	-222.0671691894531	-946.1788330078125	294.6415100097656	-188.1813201904297	-884.134033203125	44.66846466064453	-18.78992652893066	-961.8603515625	48.93105697631836	-45.30141067504883	-892.3827514648438	49.27565002441406	-133.8230133056641	-1093.136596679688	49.97577667236328	-199.1580200195312	-1368.881591796875	463.3650512695312	-58.49928283691406	-1325.952880859375	709.0607299804688	-12.98032379150391	-1637.7275390625	153.2673797607422	-254.0624542236328	-1449.72998046875	348.8770751953125	-99.80941009521484	-1479.615234375	41.21318435668945	-214.5095672607422	-1494.20361328125	69.61019897460938	-261.8273010253906	-1575.570922851562	59.11508178710938	-192.3039855957031	-1642.409790039062	206.6596832275391	-312.8604431152344	
140	1.39	-1308.345458984375	948.91748046875	-217.8643646240234	-1211.327270507812	944.0103149414062	-322.8839721679688	-1258.269653320312	1047.510375976562	-241.5290374755859	-1023.769470214844	1229.431274414062	-82.16318511962891	-1264.436401367188	1170.32470703125	-251.3498229980469	-1200.837890625	1435.465454101562	-202.5952911376953	-1044.263793945312	1342.951904296875	-108.9817047119141	-1311.529541015625	1323.189453125	-158.818359375	-1173.121337890625	1383.37890625	-302.7882690429688	-1043.459228515625	1396.723510742188	-310.04736328125	-1000.812866210938	1275.428466796875	-394.932373046875	-977.5230712890625	1057.304809570312	-409.099853515625	-1081.6884765625	1050.057250976562	-403.9822082519531	-957.3050537109375	849.5348510742188	-328.2193298339844	-959.0914916992188	836.9986572265625	-401.4434814453125	-961.0681762695312	968.1380615234375	-405.7461547851562	-970.8285522460938	687.18896484375	-336.5200805664062	-960.24609375	758.4443969726562	-397.9745178222656	-948.7098999023438	761.2481689453125	-326.4912109375	-1233.365356445312	1408.929931640625	-31.20587539672852	-1295.858642578125	1355.05029296875	21.64218139648438	-1357.952392578125	1074.70556640625	72.28117370605469	-1381.196411132812	1059.959594726562	9.866446495056152	-1265.238891601562	859.3883056640625	86.94435119628906	-1352.103515625	852.510009765625	103.4513854980469	-1365.041015625	1016.598510742188	83.35508728027344	-1280.3974609375	703.6968383789062	91.08912658691406	-1265.98974609375	761.6572875976562	102.2083358764648	-1343.636474609375	763.4398803710938	107.0641937255859	-1139.477294921875	1633.78857421875	-74.06703948974609	-966.0415649414062	1629.515625	-187.6277923583984	-1001.994934082031	1638.036376953125	-62.34465026855469	-1105.953857421875	1627.399780273438	-248.9122161865234	-1021.692016601562	849.872314453125	-304.1278991699219	-1328.750732421875	843.0839233398438	-41.05486679077148	-1205.110595703125	878.2260131835938	-11.00669479370117	-1019.042358398438	889.8052978515625	-182.5988616943359	-942.7646484375	450.59423828125	-174.1512908935547	-942.4137573242188	603.1997680664062	-211.5493469238281	-1018.018981933594	42.93026733398438	-222.2382507324219	-944.47705078125	294.0680236816406	-188.1373748779297	-884.2847290039062	44.7496337890625	-18.86915016174316	-961.9993286132812	49.04362487792969	-45.4041862487793	-892.3805541992188	49.24594497680664	-133.9022827148438	-1093.109985351562	49.94654083251953	-199.3805541992188	-1355.480712890625	463.9408264160156	-47.64118576049805	-1315.919799804688	710.6301879882812	-7.853415012359619	-1628.496704101562	162.7710113525391	-247.8800048828125	-1437.420043945312	350.6760559082031	-89.89141082763672	-1476.613037109375	40.12934112548828	-211.1439971923828	-1488.870361328125	72.34590911865234	-257.898681640625	-1570.993530273438	63.31060791015625	-188.8214874267578	-1631.219116210938	217.3239440917969	-305.5688171386719	
